<svg width="23" height="14" viewBox="0 0 23 14" fill="none" xmlns="http://www.w3.org/2000/svg">
<path d="M22.1739 13.5653H19.9565V8.02186C19.9565 6.55163 19.3725 5.14163 18.3329 4.10202C17.2933 3.06242 15.8833 2.47838 14.413 2.47838H7.76087C6.29065 2.47838 4.88064 3.06242 3.84104 4.10202C2.80143 5.14163 2.21739 6.55163 2.21739 8.02186V13.5653H0V8.02186C0 5.96355 0.817661 3.98954 2.27311 2.53409C3.72855 1.07865 5.70256 0.260986 7.76087 0.260986H14.413C16.4714 0.260986 18.4454 1.07865 19.9008 2.53409C21.3563 3.98954 22.1739 5.96355 22.1739 8.02186V13.5653Z" fill="#323334"/>
</svg>
